<svg width="98" height="23" viewBox="0 0 98 23" fill="none" xmlns="http://www.w3.org/2000/svg">
<path d="M31.443 17H29.98V6.92H35.951V8.383H31.443V11.225H35.111V12.695H31.443V17ZM38.8154 8.201H37.3524V6.78H38.8154V8.201ZM38.8154 17H37.3524V9.44H38.8154V17ZM44.7185 9.237C45.5118 9.237 46.1302 9.43767 46.5735 9.839C47.0215 10.2357 47.3225 10.7 47.4765 11.232C47.6305 11.764 47.7075 12.2867 47.7075 12.8V17H46.2235V13.283C46.2235 12.541 46.0858 11.9133 45.8105 11.4C45.5352 10.882 45.0358 10.623 44.3125 10.623C43.7385 10.623 43.2742 10.819 42.9195 11.211C42.5695 11.603 42.3945 12.2213 42.3945 13.066V17H40.9105V9.44H42.2195V10.343C42.5042 9.98833 42.8565 9.71533 43.2765 9.524C43.6965 9.33267 44.1772 9.237 44.7185 9.237ZM54.5241 6.92H55.9941V17H54.6921V16.307C54.4121 16.5963 54.0831 16.8203 53.7051 16.979C53.3271 17.133 52.9047 17.21 52.4381 17.21C51.7521 17.21 51.1501 17.0373 50.6321 16.692C50.1141 16.342 49.7151 15.8637 49.4351 15.257C49.1551 14.6503 49.0151 13.969 49.0151 13.213C49.0151 12.4523 49.1551 11.771 49.4351 11.169C49.7197 10.5623 50.1211 10.0887 50.6391 9.748C51.1617 9.40267 51.7707 9.23 52.4661 9.23C53.2874 9.23 53.9734 9.47267 54.5241 9.958V6.92ZM52.6411 15.887C53.3317 15.887 53.8451 15.649 54.1811 15.173C54.5217 14.6923 54.6921 14.039 54.6921 13.213C54.6921 12.3963 54.5241 11.75 54.1881 11.274C53.8567 10.7933 53.3574 10.553 52.6901 10.553C52.2187 10.553 51.8244 10.6697 51.5071 10.903C51.1897 11.1317 50.9541 11.4467 50.8001 11.848C50.6461 12.2493 50.5691 12.7043 50.5691 13.213C50.5691 13.7263 50.6461 14.1837 50.8001 14.585C50.9541 14.9863 51.1851 15.3037 51.4931 15.537C51.8057 15.7703 52.1884 15.887 52.6411 15.887ZM64.4094 17.21C63.6861 17.21 63.0327 17.0863 62.4494 16.839C61.8661 16.587 61.3854 16.2277 61.0074 15.761C60.6341 15.2897 60.3937 14.739 60.2864 14.109L61.8124 13.878C61.9151 14.284 62.0924 14.634 62.3444 14.928C62.6011 15.222 62.9137 15.446 63.2824 15.6C63.6511 15.754 64.0547 15.831 64.4934 15.831C64.8994 15.831 65.2751 15.7657 65.6204 15.635C65.9657 15.5043 66.2387 15.3177 66.4394 15.075C66.6447 14.8323 66.7474 14.5477 66.7474 14.221C66.7474 13.8757 66.6354 13.6003 66.4114 13.395C66.1921 13.185 65.8817 13.0193 65.4804 12.898L62.8974 12.135C62.2581 11.9483 61.7284 11.6637 61.3084 11.281C60.8884 10.8983 60.6784 10.3407 60.6784 9.608C60.6784 9.006 60.8347 8.488 61.1474 8.054C61.4601 7.61533 61.8871 7.284 62.4284 7.06C62.9744 6.83133 63.5881 6.717 64.2694 6.717C64.9461 6.717 65.5551 6.83367 66.0964 7.067C66.6424 7.30033 67.0951 7.63867 67.4544 8.082C67.8184 8.52533 68.0681 9.055 68.2034 9.671L66.6354 9.937C66.5607 9.559 66.4067 9.23233 66.1734 8.957C65.9447 8.677 65.6601 8.46467 65.3194 8.32C64.9787 8.17533 64.6101 8.103 64.2134 8.103C63.8494 8.103 63.5157 8.16367 63.2124 8.285C62.9091 8.40633 62.6687 8.57667 62.4914 8.796C62.3141 9.01533 62.2254 9.26267 62.2254 9.538C62.2254 9.91133 62.3677 10.196 62.6524 10.392C62.9417 10.5833 63.3221 10.7443 63.7934 10.875L65.6554 11.4C66.1127 11.526 66.5211 11.6753 66.8804 11.848C67.2444 12.0207 67.5664 12.2937 67.8464 12.667C68.1311 13.0357 68.2734 13.521 68.2734 14.123C68.2734 14.7763 68.0984 15.3363 67.7484 15.803C67.4031 16.265 66.9364 16.615 66.3484 16.853C65.7651 17.091 65.1187 17.21 64.4094 17.21ZM71.8442 10.616V13.955V14.354C71.8442 14.592 71.8535 14.7857 71.8722 14.935C71.8908 15.0797 71.9328 15.2057 71.9982 15.313C72.1102 15.4997 72.2665 15.635 72.4672 15.719C72.6725 15.7983 72.9222 15.838 73.2162 15.838C73.4682 15.838 73.7598 15.8123 74.0912 15.761V17C73.6572 17.084 73.2582 17.126 72.8942 17.126C72.3715 17.126 71.9142 17.042 71.5222 16.874C71.1348 16.706 70.8455 16.4423 70.6542 16.083C70.5375 15.8637 70.4605 15.6397 70.4232 15.411C70.3905 15.1777 70.3742 14.8953 70.3742 14.564V14.025V10.616H68.9252V9.44H70.3742V7.34H71.8442V9.44H74.0912V10.616H71.8442ZM78.6126 17.21C77.8706 17.21 77.2196 17.042 76.6596 16.706C76.0996 16.3653 75.6679 15.894 75.3646 15.292C75.0613 14.6853 74.9096 13.9923 74.9096 13.213C74.9096 12.429 75.0636 11.736 75.3716 11.134C75.6796 10.532 76.1136 10.0653 76.6736 9.734C77.2336 9.398 77.8799 9.23 78.6126 9.23C79.3546 9.23 80.0056 9.398 80.5656 9.734C81.1303 10.07 81.5643 10.5413 81.8676 11.148C82.1709 11.75 82.3226 12.4383 82.3226 13.213C82.3226 13.997 82.1686 14.6923 81.8606 15.299C81.5573 15.901 81.1256 16.37 80.5656 16.706C80.0056 17.042 79.3546 17.21 78.6126 17.21ZM78.6126 15.831C79.3126 15.831 79.8469 15.5953 80.2156 15.124C80.5843 14.648 80.7686 14.011 80.7686 13.213C80.7686 12.4057 80.5843 11.771 80.2156 11.309C79.8469 10.8423 79.3126 10.609 78.6126 10.609C77.9033 10.609 77.3666 10.8423 77.0026 11.309C76.6433 11.7757 76.4636 12.4103 76.4636 13.213C76.4636 14.025 76.6479 14.6643 77.0166 15.131C77.3853 15.5977 77.9173 15.831 78.6126 15.831ZM85.8629 9.867C86.0729 9.70833 86.3155 9.58933 86.5909 9.51C86.8662 9.43067 87.1462 9.391 87.4309 9.391C87.5849 9.391 87.7552 9.40733 87.9419 9.44V10.812C87.7832 10.7653 87.5989 10.742 87.3889 10.742C87.1929 10.742 86.9992 10.7677 86.8079 10.819C86.6212 10.8657 86.4485 10.9403 86.2899 11.043C85.6552 11.449 85.3379 12.163 85.3379 13.185V17H83.8609V9.44H85.1629V10.644C85.3495 10.3127 85.5829 10.0537 85.8629 9.867ZM90.2862 13.633C90.3469 14.3377 90.5592 14.8813 90.9232 15.264C91.2872 15.642 91.7865 15.831 92.4212 15.831C92.8739 15.831 93.2682 15.7283 93.6042 15.523C93.9402 15.3177 94.2015 15.019 94.3882 14.627L95.8232 15.082C95.5339 15.7493 95.0905 16.272 94.4932 16.65C93.8959 17.0233 93.2285 17.21 92.4912 17.21C91.7445 17.21 91.0865 17.0467 90.5172 16.72C89.9479 16.3887 89.5045 15.9267 89.1872 15.334C88.8745 14.7367 88.7182 14.053 88.7182 13.283C88.7182 12.4663 88.8722 11.7523 89.1802 11.141C89.4882 10.5297 89.9222 10.0583 90.4822 9.727C91.0422 9.39567 91.6885 9.23 92.4212 9.23C93.1445 9.23 93.7699 9.391 94.2972 9.713C94.8245 10.035 95.2282 10.497 95.5082 11.099C95.7929 11.6963 95.9352 12.4033 95.9352 13.22C95.9352 13.3087 95.9305 13.4463 95.9212 13.633H90.2862ZM92.4772 10.525C91.8565 10.525 91.3642 10.693 91.0002 11.029C90.6409 11.3603 90.4145 11.848 90.3212 12.492H94.4232C94.3439 11.8247 94.1432 11.33 93.8212 11.008C93.5039 10.686 93.0559 10.525 92.4772 10.525Z" fill="#1B1D21"/>
<path fill-rule="evenodd" clip-rule="evenodd" d="M19.1666 9.77508C19.1666 5.00258 15.525 1.91675 11.5 1.91675C7.47498 1.91675 3.83331 5.00258 3.83331 9.77508C3.83331 12.9567 6.39206 16.723 11.5 21.0834C16.6079 16.723 19.1666 12.9567 19.1666 9.77508ZM17.25 9.77508C17.25 6.29633 14.7104 3.83341 11.5 3.83341C8.28956 3.83341 5.74998 6.29633 5.74998 9.77508C5.74998 12.0176 7.61873 14.9884 11.5 18.5342C15.3812 14.9884 17.25 12.0176 17.25 9.77508ZM11.5 11.5001C10.4458 11.5001 9.58331 10.6376 9.58331 9.58341C9.58331 8.52925 10.4458 7.66675 11.5 7.66675C12.5541 7.66675 13.4166 8.52925 13.4166 9.58341C13.4166 10.6376 12.5541 11.5001 11.5 11.5001Z" fill="#1B1D21"/>
</svg>
