<svg width="137" height="28" viewBox="0 0 137 28" fill="none" xmlns="http://www.w3.org/2000/svg">
<path d="M41.72 21V14.8L36.2 7H38.8L42.84 12.8L46.52 7H49L43.88 14.76V21H41.72ZM53.7616 21.2C52.7349 21.2 51.8149 20.9667 51.0016 20.5C50.2016 20.02 49.5682 19.3733 49.1016 18.56C48.6349 17.7333 48.4016 16.7933 48.4016 15.74C48.4016 14.6867 48.6349 13.7533 49.1016 12.94C49.5682 12.1133 50.2016 11.4667 51.0016 11C51.8149 10.52 52.7349 10.28 53.7616 10.28C54.7749 10.28 55.6816 10.52 56.4816 11C57.2949 11.4667 57.9349 12.1133 58.4016 12.94C58.8682 13.7533 59.1016 14.6867 59.1016 15.74C59.1016 16.7933 58.8682 17.7333 58.4016 18.56C57.9349 19.3733 57.2949 20.02 56.4816 20.5C55.6816 20.9667 54.7749 21.2 53.7616 21.2ZM53.7616 19.32C54.3882 19.32 54.9482 19.1667 55.4416 18.86C55.9349 18.54 56.3216 18.1133 56.6016 17.58C56.8816 17.0333 57.0149 16.42 57.0016 15.74C57.0149 15.0467 56.8816 14.4333 56.6016 13.9C56.3216 13.3533 55.9349 12.9267 55.4416 12.62C54.9482 12.3133 54.3882 12.16 53.7616 12.16C53.1349 12.16 52.5682 12.32 52.0616 12.64C51.5682 12.9467 51.1816 13.3733 50.9016 13.92C50.6216 14.4533 50.4882 15.06 50.5016 15.74C50.4882 16.42 50.6216 17.0333 50.9016 17.58C51.1816 18.1133 51.5682 18.54 52.0616 18.86C52.5682 19.1667 53.1349 19.32 53.7616 19.32ZM65.0263 21.2C63.9063 21.2 63.0129 20.82 62.3463 20.06C61.6796 19.3 61.3463 18.2733 61.3463 16.98V10.5H63.4063V16.42C63.4063 17.34 63.6196 18.0667 64.0463 18.6C64.4863 19.1333 65.0929 19.4 65.8663 19.4C66.6263 19.4 67.2529 19.16 67.7463 18.68C68.2529 18.2 68.5063 17.58 68.5063 16.82V10.5H70.5663V21H68.5063V19.32C68.1596 19.88 67.6729 20.3333 67.0463 20.68C66.4329 21.0267 65.7596 21.2 65.0263 21.2ZM73.4556 21V10.5H75.5356V12.48C75.8423 11.8533 76.289 11.3333 76.8756 10.92C77.4623 10.4933 78.0823 10.28 78.7356 10.28C78.9623 10.28 79.1756 10.3 79.3756 10.34C79.589 10.38 79.7556 10.4267 79.8756 10.48L79.3356 12.72C79.1756 12.6533 78.9956 12.6 78.7956 12.56C78.609 12.5067 78.4223 12.48 78.2356 12.48C77.7556 12.48 77.309 12.6 76.8956 12.84C76.4956 13.08 76.169 13.4067 75.9156 13.82C75.6623 14.2333 75.5356 14.6933 75.5356 15.2V21H73.4556ZM87.6475 21V7H89.8075V18.92H96.3675V21H87.6475ZM103.43 21.2C102.403 21.2 101.483 20.9667 100.67 20.5C99.8695 20.02 99.2362 19.3733 98.7695 18.56C98.3029 17.7333 98.0695 16.7933 98.0695 15.74C98.0695 14.6867 98.3029 13.7533 98.7695 12.94C99.2362 12.1133 99.8695 11.4667 100.67 11C101.483 10.52 102.403 10.28 103.43 10.28C104.443 10.28 105.35 10.52 106.15 11C106.963 11.4667 107.603 12.1133 108.07 12.94C108.536 13.7533 108.77 14.6867 108.77 15.74C108.77 16.7933 108.536 17.7333 108.07 18.56C107.603 19.3733 106.963 20.02 106.15 20.5C105.35 20.9667 104.443 21.2 103.43 21.2ZM103.43 19.32C104.056 19.32 104.616 19.1667 105.11 18.86C105.603 18.54 105.99 18.1133 106.27 17.58C106.55 17.0333 106.683 16.42 106.67 15.74C106.683 15.0467 106.55 14.4333 106.27 13.9C105.99 13.3533 105.603 12.9267 105.11 12.62C104.616 12.3133 104.056 12.16 103.43 12.16C102.803 12.16 102.236 12.32 101.73 12.64C101.236 12.9467 100.85 13.3733 100.57 13.92C100.29 14.4533 100.156 15.06 100.17 15.74C100.156 16.42 100.29 17.0333 100.57 17.58C100.85 18.1133 101.236 18.54 101.73 18.86C102.236 19.1667 102.803 19.32 103.43 19.32ZM115.714 25.6C114.968 25.6 114.221 25.48 113.474 25.24C112.741 25.0133 112.148 24.7133 111.694 24.34L112.454 22.74C112.854 23.0467 113.348 23.2933 113.934 23.48C114.534 23.6667 115.128 23.76 115.714 23.76C117.941 23.76 119.054 22.7067 119.054 20.6V19.34C118.868 19.6733 118.588 19.98 118.214 20.26C117.854 20.54 117.441 20.7667 116.974 20.94C116.521 21.1133 116.054 21.2 115.574 21.2C114.574 21.2 113.681 20.9667 112.894 20.5C112.121 20.02 111.508 19.3733 111.054 18.56C110.601 17.7333 110.374 16.7933 110.374 15.74C110.374 14.6867 110.594 13.7533 111.034 12.94C111.488 12.1133 112.101 11.4667 112.874 11C113.661 10.52 114.541 10.28 115.514 10.28C116.248 10.28 116.934 10.4467 117.574 10.78C118.214 11.1133 118.708 11.4933 119.054 11.92V10.5H121.114V20.36C121.114 22.0267 120.634 23.3133 119.674 24.22C118.714 25.14 117.394 25.6 115.714 25.6ZM115.794 19.3C116.448 19.3 117.028 19.1467 117.534 18.84C118.041 18.5333 118.434 18.1133 118.714 17.58C118.994 17.0467 119.134 16.4333 119.134 15.74C119.134 15.0467 118.988 14.4333 118.694 13.9C118.414 13.3533 118.021 12.9267 117.514 12.62C117.021 12.3133 116.448 12.16 115.794 12.16C115.154 12.16 114.581 12.32 114.074 12.64C113.581 12.9467 113.188 13.3733 112.894 13.92C112.614 14.4533 112.474 15.06 112.474 15.74C112.474 16.42 112.614 17.0333 112.894 17.58C113.188 18.1133 113.581 18.5333 114.074 18.84C114.581 19.1467 115.154 19.3 115.794 19.3ZM128.723 21.2C127.696 21.2 126.776 20.9667 125.963 20.5C125.163 20.02 124.529 19.3733 124.063 18.56C123.596 17.7333 123.363 16.7933 123.363 15.74C123.363 14.6867 123.596 13.7533 124.063 12.94C124.529 12.1133 125.163 11.4667 125.963 11C126.776 10.52 127.696 10.28 128.723 10.28C129.736 10.28 130.643 10.52 131.443 11C132.256 11.4667 132.896 12.1133 133.363 12.94C133.829 13.7533 134.063 14.6867 134.063 15.74C134.063 16.7933 133.829 17.7333 133.363 18.56C132.896 19.3733 132.256 20.02 131.443 20.5C130.643 20.9667 129.736 21.2 128.723 21.2ZM128.723 19.32C129.349 19.32 129.909 19.1667 130.403 18.86C130.896 18.54 131.283 18.1133 131.563 17.58C131.843 17.0333 131.976 16.42 131.963 15.74C131.976 15.0467 131.843 14.4333 131.563 13.9C131.283 13.3533 130.896 12.9267 130.403 12.62C129.909 12.3133 129.349 12.16 128.723 12.16C128.096 12.16 127.529 12.32 127.023 12.64C126.529 12.9467 126.143 13.3733 125.863 13.92C125.583 14.4533 125.449 15.06 125.463 15.74C125.449 16.42 125.583 17.0333 125.863 17.58C126.143 18.1133 126.529 18.54 127.023 18.86C127.529 19.1667 128.096 19.32 128.723 19.32Z" fill="#1B1D21"/>
<path fill-rule="evenodd" clip-rule="evenodd" d="M12.8852 12.6432L13.855 9.05205C13.8563 9.02546 13.8605 8.99909 13.8673 8.97335L14.864 5.28288C14.8906 5.18499 14.9552 5.10156 15.0438 5.05097C15.1323 5.00038 15.2375 4.98678 15.3362 5.01317L19.7999 6.19977C20.0054 6.25423 20.1274 6.46357 20.0726 6.66738L19.0759 10.3578C19.0495 10.4559 18.9849 10.5395 18.8963 10.5902C18.8077 10.641 18.7025 10.6547 18.6037 10.6283L14.8918 9.64115L14.066 12.699C18.0714 13.178 21.1756 16.5613 21.1756 20.6636C21.1756 20.8746 21.0032 21.0457 20.7905 21.0457H5.38513C5.17243 21.0457 5 20.8746 5 20.6636C5 16.3008 8.51242 12.7502 12.8852 12.6432ZM15.7837 18.7535C16.6345 18.7535 17.3243 18.0693 17.3243 17.2253C17.3243 16.3813 16.6345 15.6972 15.7837 15.6972C14.9329 15.6972 14.2432 16.3813 14.2432 17.2253C14.2432 18.0693 14.9329 18.7535 15.7837 18.7535ZM9.6216 19.1355C9.6216 19.7685 9.10431 20.2816 8.4662 20.2816C7.82809 20.2816 7.3108 19.7685 7.3108 19.1355C7.3108 18.5025 7.82809 17.9894 8.4662 17.9894C9.10431 17.9894 9.6216 18.5025 9.6216 19.1355ZM11.3333 15.867C11.7587 15.867 12.1036 15.5249 12.1036 15.1029C12.1036 14.6809 11.7587 14.3388 11.3333 14.3388C10.9079 14.3388 10.563 14.6809 10.563 15.1029C10.563 15.5249 10.9079 15.867 11.3333 15.867ZM21.4344 9.00697L20.3183 8.71051V8.70974L19.8199 10.555C19.7408 10.8489 19.5472 11.0996 19.2816 11.2518C19.0161 11.404 18.7004 11.4453 18.4042 11.3664L15.8007 10.6734L15.5018 11.7813C15.4469 11.9849 15.5686 12.1941 15.7737 12.2489L20.2382 13.4355C20.4434 13.49 20.6543 13.3693 20.7096 13.1658L21.7063 9.47534C21.7329 9.37747 21.7192 9.27311 21.6682 9.18527C21.6172 9.09742 21.5331 9.03328 21.4344 9.00697Z" fill="#1B1D21"/>
</svg>
